<svg class="gpdb-logo" height="47.73" viewBox="0 0 193.59 47.73" width="193.59" xmlns="http://www.w3.org/2000/svg">
<def><style>.gpdb-logo .a {
    fill: #80bc00;
}</style></def>
<path class="a" d="M35.2,11.27A16.94,16.94,0,0,0,12.54,36.45c1.58,1.42,2.92,2.11,4.11,2.11,2.29,0,4-2.56,6.21-5.79a52.32,52.32,0,0,1,4.41-5.88,52.73,52.73,0,0,1,5.37-5c2.84-2.39,5.07-4.27,5.11-6.38C37.77,14.23,36.93,12.84,35.2,11.27ZM27.82,21.42a26.55,26.55,0,0,0-3.06,2.79,28.28,28.28,0,0,0-2.5,3.4c-1.13,1.71-1.93,2.94-3,2.94a1.52,1.52,0,0,1-1-.45A8.39,8.39,0,0,1,29.48,17.63a1.47,1.47,0,0,1,.58,1.14C30,19.63,29.1,20.38,27.82,21.42Z"></path>
<path class="a" d="M23.87,0A23.87,23.87,0,1,0,47.73,23.86,23.87,23.87,0,0,0,23.87,0ZM38.92,37.41a20.25,20.25,0,0,1-28.6,1.5,20.27,20.27,0,0,1-1.5-28.59,20.25,20.25,0,1,1,30.1,27.09Z"></path>
<path class="b" d="M58.83,13.45v0a7.19,7.19,0,0,1,7.34-7.24,7.69,7.69,0,0,1,5.5,1.92l-1.94,2.34A5.16,5.16,0,0,0,66.07,9a4.21,4.21,0,0,0-4,4.36v0a4.19,4.19,0,0,0,4.24,4.44,4.91,4.91,0,0,0,2.9-.84V15h-3.1V12.35h6.08v6.08a9.09,9.09,0,0,1-6,2.22A7,7,0,0,1,58.83,13.45Z"></path>
<path class="b" d="M76.05,6.41h6.4a5.58,5.58,0,0,1,4.08,1.42A4.4,4.4,0,0,1,87.74,11v0a4.34,4.34,0,0,1-3,4.34l3.43,5h-3.6l-3-4.48H79.13v4.48H76.05Zm6.2,6.8c1.5,0,2.36-.8,2.36-2v0c0-1.32-.92-2-2.42-2H79.13v4Z"></path>
<path class="b" d="M91.34,6.41H101.9V9.15H94.4V12H101v2.74H94.4v2.94H102v2.74H91.34Z"></path>
<path class="b" d="M105.68,6.41h10.56V9.15h-7.5V12h6.6v2.74h-6.6v2.94h7.6v2.74H105.68Z"></path>
<path class="b" d="M120,6.41h2.84L129.43,15V6.41h3v14h-2.62l-6.79-8.9v8.9h-3Z"></path>
<path class="b" d="M136.68,6.41h5.72c3.34,0,5.36,2,5.36,4.84v0c0,3.24-2.52,4.92-5.66,4.92h-2.34v4.2h-3.08Zm5.52,7.06a2.17,2.17,0,0,0,2.44-2.12v0c0-1.38-1-2.12-2.5-2.12h-2.38v4.28Z"></path>
<path class="b" d="M150.76,6.41h3.08v11.2h7v2.8H150.76Z"></path>
<path class="b" d="M163.33,14.41v-8h3.08v7.92c0,2.28,1.14,3.46,3,3.46s3-1.14,3-3.36v-8h3.08v7.9c0,4.24-2.38,6.32-6.14,6.32S163.33,18.53,163.33,14.41Z"></path>
<path class="b" d="M179.58,6.41h3.32l3.68,5.92,3.68-5.92h3.33v14h-3.07V11.27l-3.94,6h-.08l-3.9-5.92v9.08h-3Z"></path>
<path class="b" d="M59.45,27.41h5.46c4.4,0,7.44,3,7.44,7v0c0,3.94-3,7-7.44,7H59.45Zm3.08,2.78v8.44h2.38a4,4,0,0,0,4.22-4.18v0a4,4,0,0,0-4.22-4.22Z"></path>
<path class="b" d="M79.52,27.31h2.84l6,14.1H85.14l-1.28-3.14H77.94l-1.28,3.14H73.52Zm3.24,8.24L80.9,31,79,35.55Z"></path>
<path class="b" d="M92.54,30.25H88.28V27.41h11.6v2.84H95.62V41.41H92.54Z"></path>
<path class="b" d="M105.78,27.31h2.84l6,14.1H111.4l-1.28-3.14H104.2l-1.28,3.14H99.78ZM109,35.55,107.16,31l-1.86,4.54Z"></path>
<path class="b" d="M117.2,27.41h6.5a5.05,5.05,0,0,1,3.66,1.24,3.21,3.21,0,0,1,1,2.38v0a3.26,3.26,0,0,1-1.84,3c1.62.62,2.62,1.56,2.62,3.44v0c0,2.56-2.08,3.84-5.24,3.84H117.2Zm8.06,4.14c0-.92-.72-1.44-2-1.44h-3v3H123c1.36,0,2.22-.44,2.22-1.48Zm-1.5,4.08H120.2v3.08h3.66c1.36,0,2.18-.48,2.18-1.52v0C126,36.21,125.34,35.63,123.76,35.63Z"></path>
<path class="b" d="M136.71,27.31h2.84l6,14.1h-3.22l-1.28-3.14h-5.92l-1.28,3.14h-3.14ZM140,35.55,138.09,31l-1.86,4.54Z"></path>
<path class="b" d="M146.75,39.37l1.82-2.18a6.42,6.42,0,0,0,4.18,1.7c1.26,0,2-.5,2-1.32v0c0-.78-.48-1.18-2.82-1.78-2.82-.72-4.64-1.5-4.64-4.28v0c0-2.54,2-4.22,4.9-4.22a8.1,8.1,0,0,1,5.2,1.78l-1.6,2.32a6.57,6.57,0,0,0-3.64-1.38c-1.18,0-1.8.54-1.8,1.22v0c0,.92.6,1.22,3,1.84,2.84.74,4.44,1.76,4.44,4.2v0c0,2.78-2.12,4.34-5.14,4.34A8.91,8.91,0,0,1,146.75,39.37Z"></path>
<path class="b" d="M161.1,27.41h10.56v2.74h-7.5V33h6.6v2.74h-6.6v2.94h7.6v2.74H161.1Z"></path>
<path class="b" d="M175.19,30.59A1.78,1.78,0,1,1,177,28.81,1.78,1.78,0,0,1,175.19,30.59Zm0-3.29a1.52,1.52,0,1,0,1.51,1.51A1.5,1.5,0,0,0,175.19,27.3Zm.49,2.54-.53-.81h-.36v.81h-.28v-2h.83a.63.63,0,0,1,.66.62.59.59,0,0,1-.52.6l.55.82Zm-.34-1.79h-.55v.72h.55a.36.36,0,0,0,.37-.35A.37.37,0,0,0,175.34,28.05Z"></path>
</svg>